<svg xmlns="http://www.w3.org/2000/svg" xmlns:xlink="http://www.w3.org/1999/xlink" width="322.082" height="324.31" viewBox="0 0 322.082 324.31">
  <defs>
    <clipPath id="clip-path">
      <path id="path18" d="M395.742-1117.112s117.672,109.789,241.536,79.949c0,0-4.5,149.2-172.847,176.225,0,0,111.478-40.537,123.864-146.385C588.295-1007.323,445.851-1005.634,395.742-1117.112Z" transform="translate(-395.742 1117.112)" fill="#003049"/>
    </clipPath>
    <clipPath id="clip-path-2">
      <path id="path44" d="M500.217-774.879a130.426,130.426,0,0,1-19.111-15.789,129.055,129.055,0,0,1-26.861-39.08,195.452,195.452,0,0,1-29.918-23.87,149.635,149.635,0,0,0,41.491,78.239,152.325,152.325,0,0,0,22.216,18.368,163.824,163.824,0,0,0,12.183-17.867Z" transform="translate(-424.328 853.619)" fill="#003049"/>
    </clipPath>
    <clipPath id="clip-path-3">
      <path id="path70" d="M706.79-1234.827a149.734,149.734,0,0,0-106.575-44.145,149.735,149.735,0,0,0-106.576,44.145,151.933,151.933,0,0,0-21.266,26.651c5.06,3.812,10.989,8.079,17.67,12.548a130.047,130.047,0,0,1,18.883-23.911,128.256,128.256,0,0,1,91.288-37.812,128.255,128.255,0,0,1,91.288,37.812,128.254,128.254,0,0,1,37.813,91.288,128.251,128.251,0,0,1-37.813,91.287,128.933,128.933,0,0,1-40.986,27.678,197.565,197.565,0,0,1-32.772,30.474c-.145.107-.293.212-.439.318a149.577,149.577,0,0,0,89.485-43.182,149.732,149.732,0,0,0,44.145-106.576,149.732,149.732,0,0,0-44.145-106.575Z" transform="translate(-472.374 1278.971)" fill="#003049"/>
    </clipPath>
    <clipPath id="clip-path-4">
      <path id="path96" d="M368.992-1024.828s56.3,86.705,177.352,89.239c0,0-15.765,72.775-88.676,105.217,0,0,35.847-33.318,45.323-83.676C502.991-914.048,395.455-935.871,368.992-1024.828Z" transform="translate(-368.992 1024.828)" fill="#003049"/>
    </clipPath>
    <clipPath id="clip-path-5">
      <path id="path122" d="M733.96-1023.094s26.124-38.736,85.039-36.574c12.968.476,26.485,2.32,41.438,11.53,0,0-22.525-2.336-25.01,24.811C798.459-1009.041,733.96-1023.094,733.96-1023.094Z" transform="translate(-733.96 1059.755)" fill="#003049"/>
    </clipPath>
  </defs>
  <g id="Cyrix-Co_Dark_Blue" data-name="Cyrix-Co Dark Blue" transform="translate(-1843.992 1426.996)" opacity="0.99">
    <g id="g14" transform="translate(1855.253 -1358.859)">
      <g id="g16" transform="translate(0 0)" clip-path="url(#clip-path)">
        <path id="path38" d="M395.742-1117.112s117.672,109.789,241.536,79.949c0,0-4.5,149.2-172.847,176.225,0,0,111.478-40.537,123.864-146.385,0,0-142.444,1.689-192.553-109.789" transform="translate(-395.742 1117.112)" fill="#003049"/>
      </g>
    </g>
    <g id="g40" transform="translate(1867.287 -1247.939)">
      <g id="g42" clip-path="url(#clip-path-2)">
        <path id="path64" d="M500.217-774.879a130.426,130.426,0,0,1-19.111-15.789,129.055,129.055,0,0,1-26.861-39.08,195.452,195.452,0,0,1-29.918-23.87,149.635,149.635,0,0,0,41.491,78.239,152.325,152.325,0,0,0,22.216,18.368,163.824,163.824,0,0,0,12.183-17.867" transform="translate(-424.328 853.619)" fill="#003049"/>
      </g>
    </g>
    <g id="g66" transform="translate(1887.512 -1426.996)">
      <g id="g68" transform="translate(0 0)" clip-path="url(#clip-path-3)">
        <path id="path90" d="M706.79-1234.827a149.734,149.734,0,0,0-106.575-44.145,149.735,149.735,0,0,0-106.576,44.145,151.933,151.933,0,0,0-21.266,26.651c5.06,3.812,10.989,8.079,17.67,12.548a130.047,130.047,0,0,1,18.883-23.911,128.256,128.256,0,0,1,91.288-37.812,128.255,128.255,0,0,1,91.288,37.812,128.254,128.254,0,0,1,37.813,91.288,128.251,128.251,0,0,1-37.813,91.287,128.933,128.933,0,0,1-40.986,27.678,197.565,197.565,0,0,1-32.772,30.474c-.145.107-.293.212-.439.318a149.577,149.577,0,0,0,89.485-43.182,149.732,149.732,0,0,0,44.145-106.576,149.732,149.732,0,0,0-44.145-106.575" transform="translate(-472.374 1278.971)" fill="#003049"/>
      </g>
    </g>
    <g id="g92" transform="translate(1843.992 -1320.011)">
      <g id="g94" transform="translate(0)" clip-path="url(#clip-path-4)">
        <path id="path116" d="M368.992-1024.828s56.3,86.705,177.352,89.239c0,0-15.765,72.775-88.676,105.217,0,0,35.847-33.318,45.323-83.676,0,0-107.537-21.823-134-110.78" transform="translate(-368.992 1024.828)" fill="#003049"/>
      </g>
    </g>
    <g id="g118" transform="translate(1997.63 -1334.714)">
      <g id="g120" transform="translate(0 0)" clip-path="url(#clip-path-5)">
        <path id="path142" d="M733.96-1023.094s26.124-38.736,85.039-36.574c12.968.476,26.485,2.32,41.438,11.53,0,0-22.525-2.336-25.01,24.811-36.967,14.285-101.467.232-101.467.232" transform="translate(-733.96 1059.755)" fill="#003049"/>
      </g>
    </g>
  </g>
</svg>
