<svg xmlns="http://www.w3.org/2000/svg" xmlns:xlink="http://www.w3.org/1999/xlink" width="563.712" height="567.613" viewBox="0 0 563.712 567.613">
  <defs>
    <clipPath id="clip-path">
      <path id="path18" d="M395.742-1117.112s205.951,192.154,422.74,139.928c0,0-7.883,261.133-302.52,308.432,0,0,195.11-70.948,216.789-256.205,0,0-249.308,2.956-337.01-192.154Z" transform="translate(-395.742 1117.112)" fill="#fcbf49"/>
    </clipPath>
    <clipPath id="clip-path-2">
      <path id="path44" d="M557.151-715.807A228.265,228.265,0,0,1,523.7-743.442a225.873,225.873,0,0,1-47.012-68.4,342.083,342.083,0,0,1-52.363-41.778,261.893,261.893,0,0,0,72.618,136.935,266.6,266.6,0,0,0,38.882,32.148,286.741,286.741,0,0,0,21.322-31.271Z" transform="translate(-424.328 853.619)" fill="#fcbf49"/>
    </clipPath>
    <clipPath id="clip-path-3">
      <path id="path70" d="M882.654-1201.709a262.067,262.067,0,0,0-186.53-77.263,262.069,262.069,0,0,0-186.53,77.263,265.918,265.918,0,0,0-37.22,46.645c8.856,6.672,19.234,14.14,30.927,21.962a227.609,227.609,0,0,1,33.05-41.85,224.475,224.475,0,0,1,159.774-66.18,224.475,224.475,0,0,1,159.773,66.18,224.472,224.472,0,0,1,66.181,159.773A224.468,224.468,0,0,1,855.9-855.406a225.661,225.661,0,0,1-71.735,48.442A345.774,345.774,0,0,1,726.8-753.628c-.253.188-.513.37-.768.557a261.792,261.792,0,0,0,156.618-75.577,262.064,262.064,0,0,0,77.264-186.53,262.064,262.064,0,0,0-77.264-186.53Z" transform="translate(-472.374 1278.971)" fill="#fcbf49"/>
    </clipPath>
    <clipPath id="clip-path-4">
      <path id="path96" d="M368.992-1024.828S467.533-873.076,679.4-868.64c0,0-27.592,127.372-155.2,184.152,0,0,62.74-58.314,79.326-146.451,0,0-188.213-38.194-234.527-193.889Z" transform="translate(-368.992 1024.828)" fill="#fcbf49"/>
    </clipPath>
    <clipPath id="clip-path-5">
      <path id="path122" d="M733.96-995.59s45.723-67.8,148.836-64.013c22.7.833,46.354,4.06,72.526,20.181,0,0-39.423-4.089-43.773,43.425C846.848-970.995,733.96-995.59,733.96-995.59Z" transform="translate(-733.96 1059.755)" fill="#fcbf49"/>
    </clipPath>
  </defs>
  <g id="Cyrix_Co." data-name="Cyrix Co." transform="translate(-1843.992 1426.996)">
    <g id="g14" transform="translate(1863.701 -1307.742)">
      <g id="g16" transform="translate(0 0)" clip-path="url(#clip-path)">
        <path id="path38" d="M395.742-1117.112s205.951,192.154,422.74,139.928c0,0-7.883,261.133-302.52,308.432,0,0,195.11-70.948,216.789-256.205,0,0-249.308,2.956-337.01-192.154" transform="translate(-395.742 1117.112)" fill="#fcbf49"/>
      </g>
    </g>
    <g id="g40" transform="translate(1884.762 -1113.608)">
      <g id="g42" clip-path="url(#clip-path-2)">
        <path id="path64" d="M557.151-715.807A228.265,228.265,0,0,1,523.7-743.442a225.873,225.873,0,0,1-47.012-68.4,342.083,342.083,0,0,1-52.363-41.778,261.893,261.893,0,0,0,72.618,136.935,266.6,266.6,0,0,0,38.882,32.148,286.741,286.741,0,0,0,21.322-31.271" transform="translate(-424.328 853.619)" fill="#fcbf49"/>
      </g>
    </g>
    <g id="g66" transform="translate(1920.161 -1426.996)">
      <g id="g68" transform="translate(0 0)" clip-path="url(#clip-path-3)">
        <path id="path90" d="M882.654-1201.709a262.067,262.067,0,0,0-186.53-77.263,262.069,262.069,0,0,0-186.53,77.263,265.918,265.918,0,0,0-37.22,46.645c8.856,6.672,19.234,14.14,30.927,21.962a227.609,227.609,0,0,1,33.05-41.85,224.475,224.475,0,0,1,159.774-66.18,224.475,224.475,0,0,1,159.773,66.18,224.472,224.472,0,0,1,66.181,159.773A224.468,224.468,0,0,1,855.9-855.406a225.661,225.661,0,0,1-71.735,48.442A345.774,345.774,0,0,1,726.8-753.628c-.253.188-.513.37-.768.557a261.792,261.792,0,0,0,156.618-75.577,262.064,262.064,0,0,0,77.264-186.53,262.064,262.064,0,0,0-77.264-186.53" transform="translate(-472.374 1278.971)" fill="#fcbf49"/>
      </g>
    </g>
    <g id="g92" transform="translate(1843.992 -1239.75)">
      <g id="g94" transform="translate(0)" clip-path="url(#clip-path-4)">
        <path id="path116" d="M368.992-1024.828S467.533-873.076,679.4-868.64c0,0-27.592,127.372-155.2,184.152,0,0,62.74-58.314,79.326-146.451,0,0-188.213-38.194-234.527-193.889" transform="translate(-368.992 1024.828)" fill="#fcbf49"/>
      </g>
    </g>
    <g id="g118" transform="translate(2112.891 -1265.483)">
      <g id="g120" transform="translate(0 0)" clip-path="url(#clip-path-5)">
        <path id="path142" d="M733.96-995.59s45.723-67.8,148.836-64.013c22.7.833,46.354,4.06,72.526,20.181,0,0-39.423-4.089-43.773,43.425-64.7,25-177.589.407-177.589.407" transform="translate(-733.96 1059.755)" fill="#fcbf49"/>
      </g>
    </g>
  </g>
</svg>
