<svg xmlns="http://www.w3.org/2000/svg" xmlns:xlink="http://www.w3.org/1999/xlink" width="699.191" height="699" viewBox="0 0 699.191 699">
  <defs>
    <radialGradient id="radial-gradient" cx="0.266" cy="1.077" r="0.991" gradientTransform="translate(-2.918 5.666) rotate(-90) scale(1 0.93)" gradientUnits="objectBoundingBox">
      <stop offset="0" stop-color="#fd5"/>
      <stop offset="0.1" stop-color="#fd5"/>
      <stop offset="0.5" stop-color="#ff543e"/>
      <stop offset="1" stop-color="#c837ab"/>
    </radialGradient>
    <radialGradient id="radial-gradient-2" cx="-0.168" cy="0.072" r="0.443" gradientTransform="matrix(0.196, 0.981, -4.042, 0.809, 15.634, -0.42)" gradientUnits="objectBoundingBox">
      <stop offset="0" stop-color="#3771c8"/>
      <stop offset="0.128" stop-color="#3771c8"/>
      <stop offset="1" stop-color="#60f" stop-opacity="0"/>
    </radialGradient>
  </defs>
  <g id="instagram-square" transform="translate(-1658.834 -892)">
    <path id="Path_1742" data-name="Path 1742" d="M349.709,0C203.756,0,161.071.151,152.773.839c-29.952,2.49-48.59,7.206-68.895,17.315a139.556,139.556,0,0,0-40.169,29.4Q10.437,82.1,3.218,132.585C.852,148.932.163,152.266.023,235.766c-.054,27.833,0,64.464,0,113.6,0,145.835.161,188.477.86,196.758,2.42,29.145,6.991,47.482,16.67,67.54,18.5,38.394,53.828,67.217,95.448,77.972,14.411,3.71,30.328,5.754,50.762,6.722,8.658.376,96.9.645,185.2.645s176.593-.108,185.036-.538c23.66-1.113,37.4-2.958,52.591-6.883a146.372,146.372,0,0,0,95.449-78.133c9.491-19.574,14.3-38.61,16.482-66.233.473-6.023.672-102.046.672-197.941,0-95.911-.215-191.757-.688-197.78-2.2-28.07-7.017-46.945-16.815-66.895a138.561,138.561,0,0,0-29.925-41C628.639,21.51,600.354,8.066,566.643,3.2,550.312.844,547.059.145,463.494,0Z" transform="translate(1658.834 892)" fill="url(#radial-gradient)"/>
    <path id="Path_1743" data-name="Path 1743" d="M349.709,0C203.756,0,161.071.151,152.773.839c-29.952,2.49-48.59,7.206-68.895,17.315a139.556,139.556,0,0,0-40.169,29.4Q10.437,82.1,3.218,132.585C.852,148.932.163,152.266.023,235.766c-.054,27.833,0,64.464,0,113.6,0,145.835.161,188.477.86,196.758,2.42,29.145,6.991,47.482,16.67,67.54,18.5,38.394,53.828,67.217,95.448,77.972,14.411,3.71,30.328,5.754,50.762,6.722,8.658.376,96.9.645,185.2.645s176.593-.108,185.036-.538c23.66-1.113,37.4-2.958,52.591-6.883a146.372,146.372,0,0,0,95.449-78.133c9.491-19.574,14.3-38.61,16.482-66.233.473-6.023.672-102.046.672-197.941,0-95.911-.215-191.757-.688-197.78-2.2-28.07-7.017-46.945-16.815-66.895a138.561,138.561,0,0,0-29.925-41C628.639,21.51,600.354,8.066,566.643,3.2,550.312.844,547.059.145,463.494,0Z" transform="translate(1658.834 892)" fill="url(#radial-gradient-2)"/>
    <path id="instagram" d="M255.326,156.208a130.9,130.9,0,1,0,130.9,130.9A130.7,130.7,0,0,0,255.326,156.208Zm0,216.01a85.105,85.105,0,1,1,85.105-85.105,85.26,85.26,0,0,1-85.105,85.105ZM422.119,150.853a30.533,30.533,0,1,1-30.533-30.533A30.462,30.462,0,0,1,422.119,150.853Zm86.7,30.989c-1.937-40.9-11.279-77.13-41.242-106.98C437.728,45.012,401.5,35.67,360.6,33.619c-42.154-2.393-168.5-2.393-210.656,0C109.155,35.556,72.925,44.9,42.962,74.748S3.77,140.827,1.719,181.728c-2.393,42.154-2.393,168.5,0,210.656,1.937,40.9,11.279,77.13,41.242,106.98s66.079,39.192,106.98,41.242c42.154,2.393,168.5,2.393,210.656,0,40.9-1.937,77.13-11.279,106.98-41.242,29.85-29.85,39.192-66.079,41.242-106.98,2.393-42.154,2.393-168.388,0-210.542ZM454.361,437.613a86.162,86.162,0,0,1-48.534,48.534c-33.609,13.33-113.36,10.254-150.5,10.254s-117.006,2.962-150.5-10.254a86.162,86.162,0,0,1-48.534-48.534C42.962,404,46.038,324.254,46.038,287.113s-2.962-117.006,10.254-150.5a86.162,86.162,0,0,1,48.534-48.534c33.609-13.33,113.36-10.254,150.5-10.254s117.006-2.962,150.5,10.254a86.162,86.162,0,0,1,48.534,48.534c13.33,33.609,10.254,113.36,10.254,150.5S467.691,404.118,454.361,437.613Z" transform="translate(1753.16 954.387)" fill="#fff"/>
  </g>
</svg>
