<svg xmlns="http://www.w3.org/2000/svg" width="448" height="448" viewBox="0 0 448 448">
  <path id="whatsapp-square" d="M224,122.8c-72.7,0-131.8,59.1-131.9,131.8a131.217,131.217,0,0,0,20.2,70.1l3.1,5-13.3,48.6L152,365.2l4.8,2.9a131.452,131.452,0,0,0,67.1,18.4h.1c72.6,0,133.3-59.1,133.3-131.8,0-35.2-15.2-68.3-40.1-93.2A130.789,130.789,0,0,0,224,122.8Zm77.5,188.4c-3.3,9.3-19.1,17.7-26.7,18.8-12.6,1.9-22.4.9-47.5-9.9-39.7-17.2-65.7-57.2-67.7-59.8s-16.2-21.5-16.2-41,10.2-29.1,13.9-33.1a14.428,14.428,0,0,1,10.6-5c2.6,0,5.3,0,7.6.1,2.4.1,5.7-.9,8.9,6.8,3.3,7.9,11.2,27.4,12.2,29.4s1.7,4.3.3,6.9c-7.6,15.2-15.7,14.6-11.6,21.6,15.3,26.3,30.6,35.4,53.9,47.1,4,2,6.3,1.7,8.6-1,2.3-2.6,9.9-11.6,12.5-15.5,2.6-4,5.3-3.3,8.9-2s23.1,10.9,27.1,12.9,6.6,3,7.6,4.6C304.8,294,304.8,302,301.5,311.2ZM400,32H48A48.012,48.012,0,0,0,0,80V432a48.012,48.012,0,0,0,48,48H400a48.012,48.012,0,0,0,48-48V80A48.012,48.012,0,0,0,400,32ZM223.9,413.2a158.437,158.437,0,0,1-75.8-19.3L64,416l22.5-82.2a158.018,158.018,0,0,1-21.2-79.3C65.4,167.1,136.5,96,223.9,96a157.558,157.558,0,0,1,112.2,46.5c29.9,30,47.9,69.8,47.9,112.2,0,87.4-72.7,158.5-160.1,158.5Z" transform="translate(0 -32)" fill="#25d366"/>
</svg>
